<?xml version="1.0" encoding="UTF-8" standalone="no"?>
<!-- Created with Inkscape (http://www.inkscape.org/) -->

<svg
   width="1024"
   height="1024"
   viewBox="0 0 270.93333 270.93333"
   version="1.1"
   id="svg1"
   inkscape:version="1.3.2 (091e20e, 2023-11-25)"
   sodipodi:docname="icon.svg"
   xml:space="preserve"
   xmlns:inkscape="http://www.inkscape.org/namespaces/inkscape"
   xmlns:sodipodi="http://sodipodi.sourceforge.net/DTD/sodipodi-0.dtd"
   xmlns="http://www.w3.org/2000/svg"
   xmlns:svg="http://www.w3.org/2000/svg"><sodipodi:namedview
     id="namedview1"
     pagecolor="#505050"
     bordercolor="#eeeeee"
     borderopacity="1"
     inkscape:showpageshadow="0"
     inkscape:pageopacity="0"
     inkscape:pagecheckerboard="0"
     inkscape:deskcolor="#505050"
     inkscape:document-units="px"
     inkscape:zoom="0.60184714"
     inkscape:cx="512.58863"
     inkscape:cy="506.7732"
     inkscape:window-width="1480"
     inkscape:window-height="985"
     inkscape:window-x="198"
     inkscape:window-y="40"
     inkscape:window-maximized="0"
     inkscape:current-layer="layer2" /><defs
     id="defs1" /><g
     inkscape:groupmode="layer"
     id="layer2"
     inkscape:label="图层 2"><rect
       style="fill:#d6d5d1;fill-opacity:0.0116009;stroke-width:2.64583;stroke-linecap:round;stroke-linejoin:round"
       id="rect1"
       width="270.93332"
       height="270.93332"
       x="0"
       y="0" /><path
       style="fill:#d6d5d1;fill-opacity:1;stroke:none;stroke-width:3.12738;stroke-linecap:round;stroke-linejoin:round;stroke-dasharray:none;stroke-opacity:1"
       d="m 96.789772,126.02089 c -17.016991,37.98757 -21.20238,71.03705 -21.20238,71.03705 l 41.763828,14.88482 64.20807,-23.55085 9.18972,-36.91594 -13.53088,-37.56694 -80.428358,12.11186"
       id="path19" /><path
       style="fill:none;fill-opacity:1;stroke:#a4ca80;stroke-width:46.9107;stroke-linecap:round;stroke-linejoin:round;stroke-dasharray:none;stroke-opacity:1"
       d="M 32.423734,162.66084 97.749376,231.45506 247.47797,99.069533"
       id="path1" /><g
       id="g16"
       transform="matrix(1.1820036,0,0,1.1820036,-65.721239,-152.01246)"><path
         style="fill:#53524e;fill-opacity:1;stroke:none;stroke-width:2.64583;stroke-linecap:round;stroke-linejoin:round;stroke-dasharray:none;stroke-opacity:1"
         d="m 142.3637,175.94342 c -8.41889,-9.7816 -24.79361,-17.16094 -29.48762,-15.94144 -4.67194,1.21377 -5.69839,8.03698 -5.7589,15.01939 -0.056,6.46152 1.7084,14.65017 3.56069,20.6339 1.89033,6.10664 4.9943,11.6251 4.9943,11.6251 z"
         id="path16"
         sodipodi:nodetypes="cssscc" /><path
         style="fill:#53524e;fill-opacity:1;stroke:none;stroke-width:2.64583;stroke-linecap:round;stroke-linejoin:round;stroke-dasharray:none;stroke-opacity:1"
         d="m 198.05472,175.94341 c 8.41889,-9.7816 24.79361,-17.16094 29.48762,-15.94144 4.67194,1.21377 5.69839,8.03698 5.7589,15.01939 0.056,6.46152 -1.7084,14.65018 -3.56069,20.63391 -1.89033,6.10664 -4.9943,11.6251 -4.9943,11.6251 z"
         id="path16-2"
         sodipodi:nodetypes="cssscc" /></g><path
       d="M 132.95798,48.87826 C 106.53686,49.322291 94.173821,59.313768 82.628459,72.419763 74.10911,82.090704 69.467276,93.437157 67.525398,102.73825 c -0.689747,3.3037 -1.046783,6.35546 -1.104973,8.97412 -0.0024,0.1149 -0.01064,0.18633 -0.01465,0.29748 -0.155292,4.61092 -1.221022,6.11264 5.716642,14.1343 7.10488,8.21503 15.377464,11.43826 24.200576,14.87585 11.660667,4.54314 24.334397,7.22889 36.821287,7.49657 0.23124,0.005 0.46279,0.0145 0.6939,0.0177 0.54176,0.0154 1.08403,0.0269 1.62842,0.0293 0.54405,-0.002 1.08641,-0.0139 1.62783,-0.0293 0.23152,-0.003 0.46345,-0.0133 0.69511,-0.0183 12.48664,-0.26775 25.16026,-2.9529 36.82068,-7.49594 8.82307,-3.43759 17.09633,-6.66086 24.2012,-14.87586 6.93762,-8.02162 5.87131,-9.52339 5.71603,-14.1343 -0.003,-0.1111 -0.0121,-0.18253 -0.0147,-0.29747 -0.0581,-2.61867 -0.41522,-5.67042 -1.10495,-8.97413 -1.9419,-9.301125 -6.58369,-20.647508 -15.10308,-30.318484 -11.54541,-13.106055 -23.90829,-23.097472 -50.32951,-23.541504 -0.84764,-0.0143 -1.67265,0.0273 -2.50863,0.0422 -0.83597,-0.01489 -1.66099,-0.05639 -2.50861,-0.0422 z"
       style="fill:#cfcdc6;stroke-width:3.12738;stroke-linecap:round;stroke-linejoin:round"
       id="path10" /><path
       d="m 135.46697,64.049925 c -8.10123,0 -12.9933,11.675169 -12.9933,11.675169 0,0 -9.83286,-4.050383 -16.79077,-3.812114 -6.957924,0.23828 -20.968188,9.292261 -20.72992,18.108293 0.23828,8.816016 10.483946,15.726067 19.3,15.726067 8.81604,0 10.48407,-2.14397 10.48407,-2.14397 0,0 -2.14458,6.43316 -2.14458,9.05415 0,2.62099 1.07948,7.52445 5.48025,10.24584 l 4.40095,2.7212 c 0,0 1.3177,7.5246 11.56337,7.76288 0.51305,0.012 0.98287,-0.0448 1.42993,-0.13622 0.44689,0.0912 0.91648,0.14815 1.42931,0.13622 10.24569,-0.23827 11.56338,-7.76288 11.56338,-7.76288 l 4.40094,-2.7212 c 4.40077,-2.72141 5.48025,-7.62485 5.48025,-10.24584 0,-2.62099 -2.14458,-9.05415 -2.14458,-9.05415 0,0 1.66802,2.14397 10.48406,2.14397 8.81607,0 19.06173,-6.910031 19.30001,-15.726067 0.23825,-8.816056 -13.77138,-17.870013 -20.72932,-18.108293 -6.95792,-0.238269 -16.79136,3.812114 -16.79136,3.812114 0,0 -4.89145,-11.675169 -12.99269,-11.675169 z"
       style="fill:#595852;stroke-width:3.12738;stroke-linecap:round;stroke-linejoin:round"
       id="path12" /><g
       id="g20"
       transform="matrix(1.0992707,0,0,1.0992707,-13.447869,-16.096171)"><g
         id="g17"
         transform="matrix(1.0752616,0,0,1.0752616,-48.328759,-123.64221)"><path
           style="fill:#20201f;fill-opacity:1;stroke:none;stroke-width:2.64583;stroke-linecap:round;stroke-linejoin:round;stroke-dasharray:none;stroke-opacity:1"
           d="m 148.03567,201.70705 c 12.41755,3.39849 11.37187,8.49623 11.37187,8.75765 0,0.26143 -1.43783,0.65356 -3.52921,-1.1764 -2.09138,-1.82995 -4.83631,-3.13706 -7.97338,-3.5292 -3.13707,-0.39213 -7.18911,1.43782 -7.97338,1.96067 -0.78427,0.52284 -1.96067,0.52284 -2.74493,-0.26142 -0.78427,-0.78427 0.26142,-2.48352 1.04569,-3.00636 0.78426,-0.52285 5.75129,-3.26778 9.80334,-2.74494 z"
           id="path13" /><path
           style="fill:#20201f;fill-opacity:1;stroke:none;stroke-width:2.64583;stroke-linecap:round;stroke-linejoin:round;stroke-dasharray:none;stroke-opacity:1"
           d="m 193.82611,201.70705 c -12.41755,3.39849 -11.37187,8.49623 -11.37187,8.75765 0,0.26143 1.43782,0.65356 3.5292,-1.1764 2.09139,-1.82995 4.83632,-3.13706 7.97339,-3.5292 3.13707,-0.39213 7.1891,1.43782 7.97337,1.96067 0.78427,0.52284 1.96067,0.52284 2.74493,-0.26142 0.78427,-0.78427 -0.26141,-2.48352 -1.04568,-3.00636 -0.78427,-0.52285 -5.7513,-3.26778 -9.80334,-2.74494 z"
           id="path13-2" /></g><path
         d="m 170.20947,212.26437 c -7.70783,0 -7.05022,2.7259 -7.05022,3.57187 0,0.84599 0.56399,2.44416 2.72593,4.04214 2.16196,1.59796 2.63189,1.50378 2.63189,1.50378 0,0 0.56423,4.51198 -0.46974,5.63996 -1.03398,1.12798 -3.19577,2.91404 -6.10971,2.91404 -2.91394,0 -5.63987,-1.97385 -6.39186,-3.47782 -0.75198,-1.50397 -0.94031,-1.31614 -1.5043,-1.22215 -0.56398,0.094 -0.65798,2.16174 0,3.28972 0.65799,1.12797 3.57193,4.32423 7.33186,4.23023 3.75992,-0.094 5.45208,-1.1924 6.76806,-2.24121 0.87616,-0.69827 1.63601,-1.52427 2.06809,-2.02003 0.43211,0.49579 1.19151,1.32183 2.06757,2.02003 1.31598,1.04881 3.00814,2.14721 6.76806,2.24121 3.75993,0.094 6.67387,-3.10225 7.33186,-4.23023 0.65799,-1.12798 0.56399,-3.19572 0,-3.28972 -0.56399,-0.094 -0.7518,-0.28182 -1.50379,1.22215 -0.75198,1.50397 -3.4779,3.47782 -6.39185,3.47782 -2.91395,0 -5.07625,-1.78606 -6.11023,-2.91404 -1.03397,-1.12798 -0.46973,-5.63996 -0.46973,-5.63996 0,0 0.46991,0.0942 2.63188,-1.50378 2.16195,-1.59798 2.72593,-3.19615 2.72593,-4.04214 0,-0.84597 0.65815,-3.57187 -7.0497,-3.57187 z"
         style="fill:#20201f;stroke-width:2.64583;stroke-linecap:round;stroke-linejoin:round"
         id="path15"
         transform="matrix(1.0752616,0,0,1.0752616,-47.552768,-123.64221)" /></g><g
       id="g19"
       transform="matrix(1.1820036,0,0,1.1820036,2.0583488,-70.923837)"><ellipse
         style="fill:#c5c2c2;fill-opacity:1;stroke:none;stroke-width:232.272;stroke-linecap:round;stroke-linejoin:round;stroke-dasharray:none;stroke-opacity:1"
         id="path2"
         cx="61.529819"
         cy="196.85756"
         rx="15.501399"
         ry="11.971376" /><path
         style="fill:#676761;fill-opacity:1;stroke:#646561;stroke-width:2.64583;stroke-linecap:round;stroke-linejoin:round;stroke-dasharray:none;stroke-opacity:1"
         d="m 53.92674,198.55628 c -1.57526,6.5753 1.98136,8.94974 1.98136,8.94974"
         id="path3" /><path
         style="fill:#676761;fill-opacity:1;stroke:#646561;stroke-width:2.51034;stroke-linecap:round;stroke-linejoin:round;stroke-dasharray:none;stroke-opacity:1"
         d="m 66.88142,198.48863 c 1.39694,6.6747 -1.75707,9.08504 -1.75707,9.08504"
         id="path3-7" /></g></g></svg>
